M48
; DRILL file {KiCad 5.1.6-c6e7f7d~86~ubuntu18.04.1} date Fri Jul  3 15:57:02 2020
; FORMAT={-:-/ absolute / metric / decimal}
; #@! TF.CreationDate,2020-07-03T15:57:02-03:00
; #@! TF.GenerationSoftware,Kicad,Pcbnew,5.1.6-c6e7f7d~86~ubuntu18.04.1
; #@! TF.FileFunction,Plated,1,2,PTH
FMAT,2
METRIC
T1C0.600
T2C0.700
T3C0.762
T4C0.800
T5C1.000
T6C1.016
T7C1.100
T8C4.000
%
G90
G05
T1
X107.188Y-143.288
X107.188Y-145.288
X106.934Y-92.742
X106.934Y-94.742
X106.68Y-119.158
X106.68Y-121.158
T2
X83.78Y-63.16
X83.78Y-68.24
T3
X108.026Y-57.612
X108.026Y-68.612
X110.526Y-57.612
X110.526Y-68.612
X113.026Y-57.612
X113.026Y-68.612
X115.526Y-57.612
X115.526Y-68.612
X118.026Y-57.612
X118.026Y-68.612
X120.526Y-57.612
X120.526Y-68.612
X123.026Y-57.612
X123.026Y-68.612
X125.526Y-57.612
X125.526Y-68.612
X128.026Y-57.612
X128.026Y-68.612
X130.526Y-57.612
X130.526Y-68.612
T4
X85.598Y-98.552
X85.598Y-101.092
X85.598Y-103.632
X85.598Y-106.172
X85.598Y-108.712
X85.598Y-111.252
X85.598Y-113.792
X85.598Y-116.332
X98.298Y-98.552
X98.298Y-101.092
X98.298Y-103.632
X98.298Y-106.172
X98.298Y-108.712
X98.298Y-111.252
X98.298Y-113.792
X98.298Y-116.332
X56.642Y-76.788
X56.642Y-81.788
X69.86Y-47.7
X69.86Y-50.24
X69.86Y-52.78
X69.86Y-55.32
X69.86Y-57.86
X69.86Y-60.4
X69.86Y-62.94
X69.86Y-65.48
X69.86Y-68.02
X77.48Y-47.7
X77.48Y-50.24
X77.48Y-52.78
X77.48Y-55.32
X77.48Y-57.86
X77.48Y-60.4
X77.48Y-62.94
X77.48Y-65.48
X77.48Y-68.02
X85.598Y-71.882
X85.598Y-74.422
X85.598Y-76.962
X85.598Y-79.502
X85.598Y-82.042
X85.598Y-84.582
X85.598Y-87.122
X85.598Y-89.662
X98.298Y-71.882
X98.298Y-74.422
X98.298Y-76.962
X98.298Y-79.502
X98.298Y-82.042
X98.298Y-84.582
X98.298Y-87.122
X98.298Y-89.662
X86.106Y-125.476
X86.106Y-128.016
X86.106Y-130.556
X86.106Y-133.096
X86.106Y-135.636
X86.106Y-138.176
X86.106Y-140.716
X86.106Y-143.256
X98.806Y-125.476
X98.806Y-128.016
X98.806Y-130.556
X98.806Y-133.096
X98.806Y-135.636
X98.806Y-138.176
X98.806Y-140.716
X98.806Y-143.256
X82.79Y-57.78
X87.79Y-57.78
X62.35Y-79.502
X69.85Y-79.502
T5
X60.22Y-67.95
X60.28Y-53.08
X63.06Y-67.562
X63.1Y-48.01
X65.084Y-50.214
X65.1Y-67.89
X73.152Y-95.758
X73.152Y-98.044
X73.152Y-120.904
X73.406Y-123.19
X78.74Y-95.758
X78.74Y-120.904
X78.74Y-123.19
X79.502Y-98.044
X88.36Y-63.37
X88.36Y-67.54
X93.726Y-67.564
X94.21Y-65.1
X94.22Y-61.55
X98.234Y-67.564
X98.27Y-65.14
X99.62Y-61.6
X101.33Y-86.48
X101.346Y-82.042
X101.346Y-108.712
X101.38Y-112.93
X101.6Y-135.89
X101.63Y-140.03
X102.01Y-47.47
X102.84Y-69.71
X102.89Y-59.99
X109.03Y-47.52
X118.618Y-85.852
X121.92Y-92.202
X125.99Y-80.81
X128.06Y-85.85
X132.57Y-80.96
X133.34Y-56.25
X133.384Y-51.486
X134.874Y-92.202
X75.946Y-101.092
X75.946Y-103.632
X75.946Y-106.172
X78.486Y-101.092
X78.486Y-103.632
X78.486Y-106.172
X107.95Y-103.632
X107.95Y-106.172
X107.95Y-108.712
X107.95Y-111.252
X75.946Y-74.422
X75.946Y-76.962
X75.946Y-79.502
X78.486Y-74.422
X78.486Y-76.962
X78.486Y-79.502
X57.15Y-88.138
X59.69Y-88.138
X62.23Y-88.138
X57.48Y-48.05
X57.48Y-50.59
X57.48Y-53.13
X57.48Y-55.67
X57.48Y-58.21
X57.48Y-60.75
X57.48Y-63.29
X57.48Y-65.83
X107.95Y-130.556
X107.95Y-133.096
X107.95Y-135.636
X107.95Y-138.176
X82.99Y-51.92
X85.53Y-51.92
X108.204Y-76.962
X108.204Y-79.502
X108.204Y-82.042
X108.204Y-84.582
X75.946Y-128.016
X75.946Y-130.556
X75.946Y-133.096
X78.486Y-128.016
X78.486Y-130.556
X78.486Y-133.096
T6
X57.658Y-95.758
X57.658Y-98.298
X57.658Y-100.838
X57.658Y-103.378
X57.658Y-105.918
X57.658Y-108.458
X57.658Y-110.998
X57.658Y-113.538
X57.658Y-116.078
X57.658Y-118.618
X57.658Y-121.158
X57.658Y-123.698
X57.658Y-126.238
X57.658Y-128.778
X57.658Y-131.318
X57.658Y-133.858
X57.658Y-136.398
X57.658Y-138.938
X57.658Y-141.478
X57.658Y-144.018
X60.198Y-95.758
X60.198Y-98.298
X60.198Y-100.838
X60.198Y-103.378
X60.198Y-105.918
X60.198Y-108.458
X60.198Y-110.998
X60.198Y-113.538
X60.198Y-116.078
X60.198Y-118.618
X60.198Y-121.158
X60.198Y-123.698
X60.198Y-126.238
X60.198Y-128.778
X60.198Y-131.318
X60.198Y-133.858
X60.198Y-136.398
X60.198Y-138.938
X60.198Y-141.478
X60.198Y-144.018
X128.778Y-95.758
X128.778Y-98.298
X128.778Y-100.838
X128.778Y-103.378
X128.778Y-105.918
X128.778Y-108.458
X128.778Y-110.998
X128.778Y-113.538
X128.778Y-116.078
X128.778Y-118.618
X128.778Y-121.158
X128.778Y-123.698
X128.778Y-126.238
X128.778Y-128.778
X128.778Y-131.318
X128.778Y-133.858
X128.778Y-136.398
X128.778Y-138.938
X128.778Y-141.478
X128.778Y-144.018
X131.318Y-95.758
X131.318Y-98.298
X131.318Y-100.838
X131.318Y-103.378
X131.318Y-105.918
X131.318Y-108.458
X131.318Y-110.998
X131.318Y-113.538
X131.318Y-116.078
X131.318Y-118.618
X131.318Y-121.158
X131.318Y-123.698
X131.318Y-126.238
X131.318Y-128.778
X131.318Y-131.318
X131.318Y-133.858
X131.318Y-136.398
X131.318Y-138.938
X131.318Y-141.478
X131.318Y-144.018
T7
X94.18Y-53.58
X96.72Y-53.58
X99.26Y-53.58
T8
X55.753Y-37.211
X55.753Y-164.592
X132.08Y-37.084
X132.08Y-164.592
T0
M30
